PathFileType	4	(X/Y/Z)	/Users/itak/Documents/Research/Walk-IL/dataset/trc/00150_00007.trc
DataRate	CameraRate	NumFrames	NumMarkers	Units	OrigDataRate	OrigDataStartFrame	OrigNumFrames
100.000000	100.000000	4	53	mm	100.000000	487	557
Frame#	Time	RPSI			LPSI			L3			STRN			T10			C7			CLAV			RBAK			LBAK			LSHO			LUPA			LAEL			LAOL			LWTS			LWPS			LFRA			LIFD			LHPS			LHTS			RSHO			RUPA			RAEL			RAOL			RWTS			RWPS			RFRA			RIFD			RHTS			RHPS			RBHD			LFHD			RFHD			LBHD			LHIP			RHIP			RASI			LASI			LKNE			LTHI			LANK			LTIP			LTOE			LMT1			LMT5			LHEE			RKNE			RTHI			RANK			RTIP			RTOE			RMT1			RMT5			RHEE			
		X1	Y1	Z1	X2	Y2	Z2	X3	Y3	Z3	X4	Y4	Z4	X5	Y5	Z5	X6	Y6	Z6	X7	Y7	Z7	X8	Y8	Z8	X9	Y9	Z9	X10	Y10	Z10	X11	Y11	Z11	X12	Y12	Z12	X13	Y13	Z13	X14	Y14	Z14	X15	Y15	Z15	X16	Y16	Z16	X17	Y17	Z17	X18	Y18	Z18	X19	Y19	Z19	X20	Y20	Z20	X21	Y21	Z21	X22	Y22	Z22	X23	Y23	Z23	X24	Y24	Z24	X25	Y25	Z25	X26	Y26	Z26	X27	Y27	Z27	X28	Y28	Z28	X29	Y29	Z29	X30	Y30	Z30	X31	Y31	Z31	X32	Y32	Z32	X33	Y33	Z33	X34	Y34	Z34	X35	Y35	Z35	X36	Y36	Z36	X37	Y37	Z37	X38	Y38	Z38	X39	Y39	Z39	X40	Y40	Z40	X41	Y41	Z41	X42	Y42	Z42	X43	Y43	Z43	X44	Y44	Z44	X45	Y45	Z45	X46	Y46	Z46	X47	Y47	Z47	X48	Y48	Z48	X49	Y49	Z49	X50	Y50	Z50	X51	Y51	Z51	X52	Y52	Z52	X53	Y53	Z53	

488	4.87	441.5902404785156	1126.583251953125	515.8654174804688	575.508056640625	1127.107177734375	502.4933471679688	509.2504577636719	1157.626953125	501.7962341308594	534.615966796875	1364.885498046875	704.8446044921875	505.7690734863281	1303.27490234375	454.1363525390625	522.8318481445312	1597.2197265625	471.1028137207031	534.5023803710938	1496.730224609375	659.3009643554688	429.2554321289062	1410.311157226562	436.0872802734375	623.1905517578125	1575.72021484375	454.4704895019531	700.1038818359375	1564.5263671875	533.718505859375	766.9348754882812	1431.974731445312	510.0407409667969	789.1531372070312	1212.77685546875	526.0062255859375	724.0563354492188	1199.571899414062	467.6180419921875	758.403564453125	953.2791137695312	629.6203002929688	774.0653686523438	928.5877075195312	544.9937133789062	794.92578125	1096.111938476562	541.9111328125	736.0408935546875	760.6839599609375	641.4890747070312	776.3966064453125	853.1931762695312	572.5847778320312	769.1976318359375	863.7390747070312	641.0127563476562	348.4805297851562	1581.92138671875	546.224853515625	282.2158203125	1508.385498046875	540.2710571289062	256.2651977539062	1213.729248046875	554.4939575195312	351.014404296875	1209.615112304688	536.3331909179688	288.2550964355469	986.6384887695312	720.9872436523438	245.1687164306641	962.5438232421875	652.7684936523438	243.0654907226562	1142.987182617188	587.0227661132812	309.0814514160156	794.6615600585938	763.8817749023438	286.2375183105469	881.9384765625	762.0900268554688	247.9079895019531	866.7109985351562	700.7932739257812	451.8446350097656	1783.754760742188	528.9854125976562	602.1165161132812	1829.4677734375	684.07080078125	474.4838256835938	1833.747680664062	699.4898071289062	585.6766967773438	1784.296508789062	506.5791320800781	693.06494140625	1041.885009765625	585.6489868164062	346.3077697753906	1031.464233398438	654.8558349609375	399.7797546386719	1107.54296875	731.14990234375	662.5341796875	1107.85595703125	696.2432861328125	659.568603515625	539.5685424804688	618.5218505859375	688.6119995117188	685.3626098632812	595.3180541992188	639.1935424804688	37.86929702758789	511.7999877929688	676.4902954101562	293.0458374023438	519.719482421875	583.2625122070312	37.94967269897461	744.513916015625	550.42529296875	45.23803329467773	661.3301391601562	665.9581909179688	37.77569198608398	636.0516967773438	578.0364990234375	37.44856643676758	442.6627807617188	375.7318725585938	540.3648071289062	628.8077392578125	347.7649536132812	818.96044921875	665.8327026367188	398.7658386230469	29.40267372131348	534.2780151367188	364.9251708984375	408.3666687011719	602.0319213867188	470.6227722167969	46.58367919921875	760.8299560546875	508.421875	37.72740936279297	696.47900390625	389.021240234375	40.89053344726562	670.5084228515625	442.7930908203125	28.39920806884766	473.1640319824219	
489	4.88	441.5784912109375	1126.621826171875	516.0536499023438	575.4533081054688	1127.150634765625	502.9211120605469	509.1651916503906	1157.635864257812	502.1156616210938	534.255859375	1364.862060546875	705.17724609375	505.608642578125	1303.095336914062	454.8751220703125	522.6590576171875	1597.164428710938	471.2845764160156	534.2503662109375	1496.7080078125	659.556640625	429.1158142089844	1410.245727539062	436.2685852050781	623.023193359375	1575.616455078125	454.6771850585938	699.92626953125	1564.448852539062	533.9186401367188	766.6678466796875	1431.857666015625	509.9835815429688	788.7552490234375	1212.67138671875	525.229248046875	723.3909912109375	1199.609619140625	467.1226196289062	758.4608154296875	953.0070190429688	628.4873657226562	773.6270141601562	928.4296875	543.7451782226562	794.5682983398438	1095.978759765625	540.857666015625	736.1287231445312	760.3997192382812	640.1466064453125	776.1532592773438	853.028076171875	571.1741333007812	769.3139038085938	863.4578857421875	639.6610107421875	348.2763366699219	1581.898559570312	546.3085327148438	282.0128173828125	1508.317749023438	540.3792114257812	256.2697143554688	1213.651123046875	554.4612426757812	351.0582275390625	1209.6357421875	536.381591796875	288.1343688964844	986.2056274414062	720.4766235351562	245.1811676025391	962.2853393554688	652.2239379882812	243.04345703125	1142.877197265625	586.8748779296875	309.1089782714844	794.1795654296875	762.9666748046875	286.2149047851562	881.4500122070312	761.3670654296875	247.8519744873047	866.3450317382812	699.9962158203125	451.6368408203125	1783.769165039062	529.0942993164062	601.8596801757812	1829.457153320312	684.2517700195312	474.2699890136719	1833.637451171875	699.6641845703125	585.50341796875	1784.431274414062	506.715576171875	693.2003173828125	1042.208618164062	586.775146484375	346.1590881347656	1031.475830078125	655.006103515625	399.1820068359375	1107.475341796875	731.281982421875	662.0029296875	1107.85498046875	696.7973022460938	659.4039916992188	539.540283203125	618.892333984375	688.421630859375	685.3544311523438	595.7277221679688	639.1994018554688	37.88124465942383	511.8006591796875	676.43701171875	293.054931640625	519.9204711914062	583.248779296875	37.96004486083984	744.5134887695312	550.4267578125	45.23966979980469	661.3280639648438	665.956298828125	37.78181838989258	636.0524291992188	578.0428466796875	37.46184921264648	442.6608276367188	375.5083312988281	540.31494140625	628.6946411132812	347.4748840332031	818.908447265625	665.69384765625	398.7586669921875	29.41245079040527	534.2716064453125	364.7339782714844	408.3451538085938	601.9452514648438	470.6225280761719	46.55239105224609	760.8582153320312	508.4295959472656	37.7076530456543	696.4908447265625	389.0228271484375	40.88832473754883	670.5166015625	442.8099670410156	28.42048454284668	473.1815490722656	
490	4.89	441.5712280273438	1126.664184570312	516.18310546875	575.414306640625	1127.2109375	503.2842712402344	509.1058044433594	1157.64306640625	502.3549499511719	533.8853149414062	1364.845703125	705.4730834960938	505.4658203125	1302.988525390625	455.5265502929688	522.505615234375	1597.155029296875	471.4814147949219	533.9733276367188	1496.707275390625	659.8137817382812	429.0046081542969	1410.233032226562	436.4193725585938	622.8766479492188	1575.564453125	454.9240112304688	699.7645874023438	1564.400024414062	534.1760864257812	766.4208374023438	1431.785034179688	510.0097961425781	788.41259765625	1212.605712890625	524.5684814453125	722.8007202148438	1199.686889648438	466.6852722167969	758.5089111328125	952.8074951171875	627.5023803710938	773.2276000976562	928.3196411132812	542.6656494140625	794.24365234375	1095.892333984375	539.936279296875	736.2059936523438	760.199462890625	639.0115356445312	775.9271850585938	852.9148559570312	569.9627685546875	769.387451171875	863.255126953125	638.50048828125	348.0772094726562	1581.907348632812	546.3904418945312	281.830078125	1508.284790039062	540.466064453125	256.2768249511719	1213.61376953125	554.429443359375	351.0999145507812	1209.680297851562	536.4205932617188	287.9847717285156	985.7654418945312	719.8803100585938	245.1948852539062	962.0692749023438	651.6370239257812	243.0326232910156	1142.797973632812	586.7144165039062	309.1653442382812	793.6841430664062	761.9329833984375	286.2339172363281	880.946044921875	760.5645141601562	247.7858123779297	865.9838256835938	699.1343383789062	451.4446411132812	1783.777099609375	529.1947631835938	601.6207275390625	1829.51318359375	684.40380859375	474.064453125	1833.606323242188	699.7824096679688	585.3457641601562	1784.530029296875	506.8373718261719	693.2054443359375	1042.3974609375	587.617919921875	346.0354309082031	1031.468017578125	655.1024780273438	398.6132202148438	1107.441162109375	731.3642578125	661.5093383789062	1107.866943359375	697.2725830078125	659.2192993164062	539.5211791992188	619.2823486328125	688.2261352539062	685.3557739257812	596.1455688476562	639.2026977539062	37.9056282043457	511.8078002929688	676.379638671875	293.0760803222656	520.140625	583.2349853515625	37.96710586547852	744.516845703125	550.4268798828125	45.24050903320312	661.3291015625	665.9469604492188	37.79035949707031	636.0568237304688	578.0447998046875	37.48440551757812	442.6629943847656	375.3350830078125	540.2639770507812	628.7450561523438	347.2390441894531	818.86767578125	665.6160888671875	398.7716064453125	29.42232704162598	534.279296875	364.5987243652344	408.3086547851562	602.0279541015625	470.6305236816406	46.51476669311523	760.8890991210938	508.4379272460938	37.68208312988281	696.5040283203125	389.02587890625	40.8868408203125	670.5301513671875	442.8294372558594	28.44930267333984	473.2031860351562	
491	4.9	441.5565185546875	1126.70361328125	516.267333984375	575.3770751953125	1127.275634765625	503.5858154296875	509.0599060058594	1157.643676757812	502.5249328613281	533.5191650390625	1364.835815429688	705.72802734375	505.3431091308594	1302.9560546875	456.0504455566406	522.3693237304688	1597.183715820312	471.6931457519531	533.6803588867188	1496.724365234375	660.0692749023438	428.9172058105469	1410.269165039062	436.5411376953125	622.74658203125	1575.56005859375	455.204345703125	699.6192626953125	1564.379638671875	534.4818115234375	766.1965942382812	1431.756591796875	510.1131286621094	788.1248168945312	1212.577392578125	524.0297241210938	722.289306640625	1199.80126953125	466.3120422363281	758.5396728515625	952.6734619140625	626.6636962890625	772.8721313476562	928.2579345703125	541.7510375976562	793.9558715820312	1095.8505859375	539.1564331054688	736.2688598632812	760.0760498046875	638.0703125	775.7152709960938	852.8486938476562	568.9468383789062	769.4129028320312	863.12353515625	637.5276489257812	347.8843688964844	1581.941528320312	546.475341796875	281.6716613769531	1508.280151367188	540.531494140625	256.2908325195312	1213.611694335938	554.3880004882812	351.1444702148438	1209.7431640625	536.4501342773438	287.8067321777344	985.3305053710938	719.2132568359375	245.2016448974609	961.891845703125	651.008544921875	243.0316467285156	1142.744262695312	586.5300903320312	309.2275390625	793.177978515625	760.8002319335938	286.2691345214844	880.4307250976562	759.6947021484375	247.7354431152344	865.6300048828125	698.224365234375	451.2661743164062	1783.774780273438	529.291015625	601.403076171875	1829.62939453125	684.52734375	473.8617553710938	1833.647094726562	699.8482055664062	585.1997680664062	1784.589965820312	506.9468994140625	693.0571899414062	1042.421630859375	588.1270751953125	345.9277954101562	1031.446899414062	655.1566772460938	398.0915222167969	1107.441528320312	731.4102172851562	661.064453125	1107.8896484375	697.666015625	659.0211791992188	539.511474609375	619.6824951171875	688.0296020507812	685.3679809570312	596.5638427734375	639.2048950195312	37.93730926513672	511.8202209472656	676.3209838867188	293.1105346679688	520.3722534179688	583.2215576171875	37.97241592407227	744.5217895507812	550.4263916015625	45.24104690551758	661.3320922851562	665.9337158203125	37.79973220825195	636.0641479492188	578.044189453125	37.51387405395508	442.6677856445312	375.2049560546875	540.2183227539062	628.92822265625	347.0527038574219	818.8370971679688	665.6083984375	398.8038330078125	29.42957305908203	534.3030395507812	364.5140075683594	408.2632751464844	602.2488403320312	470.6450500488281	46.47348785400391	760.9204711914062	508.4463195800781	37.65391540527344	696.5182495117188	389.0305480957031	40.88619995117188	670.5477905273438	442.8464050292969	28.48307991027832	473.2270812988281	
